<svg width="238" height="93" viewBox="0 0 238 93" fill="none" xmlns="http://www.w3.org/2000/svg">
<rect y="12" width="238" height="81" rx="4" fill="#1F2937"/>
<path d="M44 0L53.5263 12.75H34.4737L44 0Z" fill="#1F2937"/>
<path d="M19.6602 42.6211L19.9883 44.8711L20.4688 42.8438L23.8438 30.9375H25.7422L29.0352 42.8438L29.5039 44.9062L29.8672 42.6094L32.5156 30.9375H34.7773L30.6406 48H28.5898L25.0742 35.5664L24.8047 34.2656L24.5352 35.5664L20.8906 48H18.8398L14.7148 30.9375H16.9648L19.6602 42.6211ZM41.832 48.2344C40.1133 48.2344 38.7148 47.6719 37.6367 46.5469C36.5586 45.4141 36.0195 43.9023 36.0195 42.0117V41.6133C36.0195 40.3555 36.2578 39.2344 36.7344 38.25C37.2188 37.2578 37.8906 36.4844 38.75 35.9297C39.6172 35.3672 40.5547 35.0859 41.5625 35.0859C43.2109 35.0859 44.4922 35.6289 45.4062 36.7148C46.3203 37.8008 46.7773 39.3555 46.7773 41.3789V42.2812H38.1875C38.2188 43.5312 38.582 44.543 39.2773 45.3164C39.9805 46.082 40.8711 46.4648 41.9492 46.4648C42.7148 46.4648 43.3633 46.3086 43.8945 45.9961C44.4258 45.6836 44.8906 45.2695 45.2891 44.7539L46.6133 45.7852C45.5508 47.418 43.957 48.2344 41.832 48.2344ZM41.5625 36.8672C40.6875 36.8672 39.9531 37.1875 39.3594 37.8281C38.7656 38.4609 38.3984 39.3516 38.2578 40.5H44.6094V40.3359C44.5469 39.2344 44.25 38.3828 43.7188 37.7812C43.1875 37.1719 42.4688 36.8672 41.5625 36.8672ZM51.6523 48H49.4844V30H51.6523V48ZM60.2188 46.4648C60.9922 46.4648 61.668 46.2305 62.2461 45.7617C62.8242 45.293 63.1445 44.707 63.207 44.0039H65.2578C65.2188 44.7305 64.9688 45.4219 64.5078 46.0781C64.0469 46.7344 63.4297 47.2578 62.6562 47.6484C61.8906 48.0391 61.0781 48.2344 60.2188 48.2344C58.4922 48.2344 57.1172 47.6602 56.0938 46.5117C55.0781 45.3555 54.5703 43.7773 54.5703 41.7773V41.4141C54.5703 40.1797 54.7969 39.082 55.25 38.1211C55.7031 37.1602 56.3516 36.4141 57.1953 35.8828C58.0469 35.3516 59.0508 35.0859 60.207 35.0859C61.6289 35.0859 62.8086 35.5117 63.7461 36.3633C64.6914 37.2148 65.1953 38.3203 65.2578 39.6797H63.207C63.1445 38.8594 62.832 38.1875 62.2695 37.6641C61.7148 37.1328 61.0273 36.8672 60.207 36.8672C59.1055 36.8672 58.25 37.2656 57.6406 38.0625C57.0391 38.8516 56.7383 39.9961 56.7383 41.4961V41.9062C56.7383 43.3672 57.0391 44.4922 57.6406 45.2812C58.2422 46.0703 59.1016 46.4648 60.2188 46.4648ZM67.1211 41.543C67.1211 40.3008 67.3633 39.1836 67.8477 38.1914C68.3398 37.1992 69.0195 36.4336 69.8867 35.8945C70.7617 35.3555 71.7578 35.0859 72.875 35.0859C74.6016 35.0859 75.9961 35.6836 77.0586 36.8789C78.1289 38.0742 78.6641 39.6641 78.6641 41.6484V41.8008C78.6641 43.0352 78.4258 44.1445 77.9492 45.1289C77.4805 46.1055 76.8047 46.8672 75.9219 47.4141C75.0469 47.9609 74.0391 48.2344 72.8984 48.2344C71.1797 48.2344 69.7852 47.6367 68.7148 46.4414C67.6523 45.2461 67.1211 43.6641 67.1211 41.6953V41.543ZM69.3008 41.8008C69.3008 43.207 69.625 44.3359 70.2734 45.1875C70.9297 46.0391 71.8047 46.4648 72.8984 46.4648C74 46.4648 74.875 46.0352 75.5234 45.1758C76.1719 44.3086 76.4961 43.0977 76.4961 41.543C76.4961 40.1523 76.1641 39.0273 75.5 38.168C74.8438 37.3008 73.9688 36.8672 72.875 36.8672C71.8047 36.8672 70.9414 37.293 70.2852 38.1445C69.6289 38.9961 69.3008 40.2148 69.3008 41.8008ZM83.4219 35.3203L83.4805 36.7266C84.4102 35.6328 85.6641 35.0859 87.2422 35.0859C89.0156 35.0859 90.2227 35.7656 90.8633 37.125C91.2852 36.5156 91.832 36.0234 92.5039 35.6484C93.1836 35.2734 93.9844 35.0859 94.9062 35.0859C97.6875 35.0859 99.1016 36.5586 99.1484 39.5039V48H96.9805V39.6328C96.9805 38.7266 96.7734 38.0508 96.3594 37.6055C95.9453 37.1523 95.25 36.9258 94.2734 36.9258C93.4688 36.9258 92.8008 37.168 92.2695 37.6523C91.7383 38.1289 91.4297 38.7734 91.3438 39.5859V48H89.1641V39.6914C89.1641 37.8477 88.2617 36.9258 86.457 36.9258C85.0352 36.9258 84.0625 37.5312 83.5391 38.7422V48H81.3711V35.3203H83.4219ZM107.691 48.2344C105.973 48.2344 104.574 47.6719 103.496 46.5469C102.418 45.4141 101.879 43.9023 101.879 42.0117V41.6133C101.879 40.3555 102.117 39.2344 102.594 38.25C103.078 37.2578 103.75 36.4844 104.609 35.9297C105.477 35.3672 106.414 35.0859 107.422 35.0859C109.07 35.0859 110.352 35.6289 111.266 36.7148C112.18 37.8008 112.637 39.3555 112.637 41.3789V42.2812H104.047C104.078 43.5312 104.441 44.543 105.137 45.3164C105.84 46.082 106.73 46.4648 107.809 46.4648C108.574 46.4648 109.223 46.3086 109.754 45.9961C110.285 45.6836 110.75 45.2695 111.148 44.7539L112.473 45.7852C111.41 47.418 109.816 48.2344 107.691 48.2344ZM107.422 36.8672C106.547 36.8672 105.812 37.1875 105.219 37.8281C104.625 38.4609 104.258 39.3516 104.117 40.5H110.469V40.3359C110.406 39.2344 110.109 38.3828 109.578 37.7812C109.047 37.1719 108.328 36.8672 107.422 36.8672ZM117.582 43.1836H115.625L115.473 30.9375H117.746L117.582 43.1836ZM115.391 46.9102C115.391 46.5586 115.496 46.2656 115.707 46.0312C115.926 45.7891 116.246 45.668 116.668 45.668C117.09 45.668 117.41 45.7891 117.629 46.0312C117.848 46.2656 117.957 46.5586 117.957 46.9102C117.957 47.2617 117.848 47.5547 117.629 47.7891C117.41 48.0156 117.09 48.1289 116.668 48.1289C116.246 48.1289 115.926 48.0156 115.707 47.7891C115.496 47.5547 115.391 47.2617 115.391 46.9102Z" fill="white"/>
<path d="M17.7734 68.4141L17.9922 69.9141L18.3125 68.5625L20.5625 60.625H21.8281L24.0234 68.5625L24.3359 69.9375L24.5781 68.4062L26.3438 60.625H27.8516L25.0938 72H23.7266L21.3828 63.7109L21.2031 62.8438L21.0234 63.7109L18.5938 72H17.2266L14.4766 60.625H15.9766L17.7734 68.4141ZM32.5547 72.1562C31.4089 72.1562 30.4766 71.7812 29.7578 71.0312C29.0391 70.276 28.6797 69.2682 28.6797 68.0078V67.7422C28.6797 66.9036 28.8385 66.1562 29.1562 65.5C29.4792 64.8385 29.9271 64.3229 30.5 63.9531C31.0781 63.5781 31.7031 63.3906 32.375 63.3906C33.474 63.3906 34.3281 63.7526 34.9375 64.4766C35.5469 65.2005 35.8516 66.237 35.8516 67.5859V68.1875H30.125C30.1458 69.0208 30.388 69.6953 30.8516 70.2109C31.3203 70.7214 31.9141 70.9766 32.6328 70.9766C33.1432 70.9766 33.5755 70.8724 33.9297 70.6641C34.2839 70.4557 34.5938 70.1797 34.8594 69.8359L35.7422 70.5234C35.0339 71.612 33.9714 72.1562 32.5547 72.1562ZM32.375 64.5781C31.7917 64.5781 31.3021 64.7917 30.9062 65.2188C30.5104 65.6406 30.2656 66.2344 30.1719 67H34.4062V66.8906C34.3646 66.1562 34.1667 65.5885 33.8125 65.1875C33.4583 64.7812 32.9792 64.5781 32.375 64.5781ZM39.1016 72H37.6562V60H39.1016V72ZM44.8125 70.9766C45.3281 70.9766 45.7786 70.8203 46.1641 70.5078C46.5495 70.1953 46.763 69.8047 46.8047 69.3359H48.1719C48.1458 69.8203 47.9792 70.2812 47.6719 70.7188C47.3646 71.1562 46.9531 71.5052 46.4375 71.7656C45.9271 72.026 45.3854 72.1562 44.8125 72.1562C43.6615 72.1562 42.7448 71.7734 42.0625 71.0078C41.3854 70.237 41.0469 69.1849 41.0469 67.8516V67.6094C41.0469 66.7865 41.1979 66.0547 41.5 65.4141C41.8021 64.7734 42.2344 64.276 42.7969 63.9219C43.3646 63.5677 44.0339 63.3906 44.8047 63.3906C45.7526 63.3906 46.5391 63.6745 47.1641 64.2422C47.7943 64.8099 48.1302 65.5469 48.1719 66.4531H46.8047C46.763 65.9062 46.5547 65.4583 46.1797 65.1094C45.8099 64.7552 45.3516 64.5781 44.8047 64.5781C44.0703 64.5781 43.5 64.8438 43.0938 65.375C42.6927 65.901 42.4922 66.6641 42.4922 67.6641V67.9375C42.4922 68.9115 42.6927 69.6615 43.0938 70.1875C43.4948 70.7135 44.0677 70.9766 44.8125 70.9766ZM49.4141 67.6953C49.4141 66.8672 49.5755 66.1224 49.8984 65.4609C50.2266 64.7995 50.6797 64.2891 51.2578 63.9297C51.8411 63.5703 52.5052 63.3906 53.25 63.3906C54.401 63.3906 55.3307 63.7891 56.0391 64.5859C56.7526 65.3828 57.1094 66.4427 57.1094 67.7656V67.8672C57.1094 68.6901 56.9505 69.4297 56.6328 70.0859C56.3203 70.737 55.8698 71.2448 55.2812 71.6094C54.6979 71.974 54.026 72.1562 53.2656 72.1562C52.1198 72.1562 51.1901 71.7578 50.4766 70.9609C49.7682 70.1641 49.4141 69.1094 49.4141 67.7969V67.6953ZM50.8672 67.8672C50.8672 68.8047 51.0833 69.5573 51.5156 70.125C51.9531 70.6927 52.5365 70.9766 53.2656 70.9766C54 70.9766 54.5833 70.6901 55.0156 70.1172C55.4479 69.5391 55.6641 68.7318 55.6641 67.6953C55.6641 66.7682 55.4427 66.0182 55 65.4453C54.5625 64.8672 53.9792 64.5781 53.25 64.5781C52.5365 64.5781 51.9609 64.862 51.5234 65.4297C51.0859 65.9974 50.8672 66.8099 50.8672 67.8672ZM60.2812 63.5469L60.3203 64.4844C60.9401 63.7552 61.776 63.3906 62.8281 63.3906C64.0104 63.3906 64.8151 63.8438 65.2422 64.75C65.5234 64.3438 65.888 64.0156 66.3359 63.7656C66.7891 63.5156 67.3229 63.3906 67.9375 63.3906C69.7917 63.3906 70.7344 64.3724 70.7656 66.3359V72H69.3203V66.4219C69.3203 65.8177 69.1823 65.3672 68.9062 65.0703C68.6302 64.7682 68.1667 64.6172 67.5156 64.6172C66.9792 64.6172 66.5339 64.7786 66.1797 65.1016C65.8255 65.4193 65.6198 65.849 65.5625 66.3906V72H64.1094V66.4609C64.1094 65.2318 63.5078 64.6172 62.3047 64.6172C61.3568 64.6172 60.7083 65.0208 60.3594 65.8281V72H58.9141V63.5469H60.2812ZM76.4609 72.1562C75.3151 72.1562 74.3828 71.7812 73.6641 71.0312C72.9453 70.276 72.5859 69.2682 72.5859 68.0078V67.7422C72.5859 66.9036 72.7448 66.1562 73.0625 65.5C73.3854 64.8385 73.8333 64.3229 74.4062 63.9531C74.9844 63.5781 75.6094 63.3906 76.2812 63.3906C77.3802 63.3906 78.2344 63.7526 78.8438 64.4766C79.4531 65.2005 79.7578 66.237 79.7578 67.5859V68.1875H74.0312C74.0521 69.0208 74.2943 69.6953 74.7578 70.2109C75.2266 70.7214 75.8203 70.9766 76.5391 70.9766C77.0495 70.9766 77.4818 70.8724 77.8359 70.6641C78.1901 70.4557 78.5 70.1797 78.7656 69.8359L79.6484 70.5234C78.9401 71.612 77.8776 72.1562 76.4609 72.1562ZM76.2812 64.5781C75.6979 64.5781 75.2083 64.7917 74.8125 65.2188C74.4167 65.6406 74.1719 66.2344 74.0781 67H78.3125V66.8906C78.2708 66.1562 78.0729 65.5885 77.7188 65.1875C77.3646 64.7812 76.8854 64.5781 76.2812 64.5781ZM87.3672 61.5V63.5469H88.9453V64.6641H87.3672V69.9062C87.3672 70.2448 87.4375 70.5 87.5781 70.6719C87.7188 70.8385 87.9583 70.9219 88.2969 70.9219C88.4635 70.9219 88.6927 70.8906 88.9844 70.8281V72C88.6042 72.1042 88.2344 72.1562 87.875 72.1562C87.2292 72.1562 86.7422 71.9609 86.4141 71.5703C86.0859 71.1797 85.9219 70.625 85.9219 69.9062V64.6641H84.3828V63.5469H85.9219V61.5H87.3672ZM90.1016 67.6953C90.1016 66.8672 90.263 66.1224 90.5859 65.4609C90.9141 64.7995 91.3672 64.2891 91.9453 63.9297C92.5286 63.5703 93.1927 63.3906 93.9375 63.3906C95.0885 63.3906 96.0182 63.7891 96.7266 64.5859C97.4401 65.3828 97.7969 66.4427 97.7969 67.7656V67.8672C97.7969 68.6901 97.638 69.4297 97.3203 70.0859C97.0078 70.737 96.5573 71.2448 95.9688 71.6094C95.3854 71.974 94.7135 72.1562 93.9531 72.1562C92.8073 72.1562 91.8776 71.7578 91.1641 70.9609C90.4557 70.1641 90.1016 69.1094 90.1016 67.7969V67.6953ZM91.5547 67.8672C91.5547 68.8047 91.7708 69.5573 92.2031 70.125C92.6406 70.6927 93.224 70.9766 93.9531 70.9766C94.6875 70.9766 95.2708 70.6901 95.7031 70.1172C96.1354 69.5391 96.3516 68.7318 96.3516 67.6953C96.3516 66.7682 96.1302 66.0182 95.6875 65.4453C95.25 64.8672 94.6667 64.5781 93.9375 64.5781C93.224 64.5781 92.6484 64.862 92.2109 65.4297C91.7734 65.9974 91.5547 66.8099 91.5547 67.8672ZM103.195 67.6953C103.195 66.8672 103.357 66.1224 103.68 65.4609C104.008 64.7995 104.461 64.2891 105.039 63.9297C105.622 63.5703 106.286 63.3906 107.031 63.3906C108.182 63.3906 109.112 63.7891 109.82 64.5859C110.534 65.3828 110.891 66.4427 110.891 67.7656V67.8672C110.891 68.6901 110.732 69.4297 110.414 70.0859C110.102 70.737 109.651 71.2448 109.062 71.6094C108.479 71.974 107.807 72.1562 107.047 72.1562C105.901 72.1562 104.971 71.7578 104.258 70.9609C103.549 70.1641 103.195 69.1094 103.195 67.7969V67.6953ZM104.648 67.8672C104.648 68.8047 104.865 69.5573 105.297 70.125C105.734 70.6927 106.318 70.9766 107.047 70.9766C107.781 70.9766 108.365 70.6901 108.797 70.1172C109.229 69.5391 109.445 68.7318 109.445 67.6953C109.445 66.7682 109.224 66.0182 108.781 65.4453C108.344 64.8672 107.76 64.5781 107.031 64.5781C106.318 64.5781 105.742 64.862 105.305 65.4297C104.867 65.9974 104.648 66.8099 104.648 67.8672ZM117.922 71.1641C117.359 71.8255 116.534 72.1562 115.445 72.1562C114.544 72.1562 113.857 71.8958 113.383 71.375C112.914 70.849 112.677 70.0729 112.672 69.0469V63.5469H114.117V69.0078C114.117 70.2891 114.638 70.9297 115.68 70.9297C116.784 70.9297 117.518 70.5182 117.883 69.6953V63.5469H119.328V72H117.953L117.922 71.1641ZM125.617 64.8438C125.398 64.8073 125.161 64.7891 124.906 64.7891C123.958 64.7891 123.315 65.1927 122.977 66V72H121.531V63.5469H122.938L122.961 64.5234C123.435 63.7682 124.107 63.3906 124.977 63.3906C125.258 63.3906 125.471 63.4271 125.617 63.5V64.8438ZM130.578 67.7031C130.578 66.3854 130.883 65.3385 131.492 64.5625C132.102 63.7812 132.909 63.3906 133.914 63.3906C134.945 63.3906 135.75 63.7552 136.328 64.4844L136.398 63.5469H137.719V71.7969C137.719 72.8906 137.393 73.7526 136.742 74.3828C136.096 75.013 135.227 75.3281 134.133 75.3281C133.523 75.3281 132.927 75.1979 132.344 74.9375C131.76 74.6771 131.315 74.3203 131.008 73.8672L131.758 73C132.378 73.7656 133.135 74.1484 134.031 74.1484C134.734 74.1484 135.281 73.9505 135.672 73.5547C136.068 73.1589 136.266 72.6016 136.266 71.8828V71.1562C135.688 71.8229 134.898 72.1562 133.898 72.1562C132.909 72.1562 132.107 71.7578 131.492 70.9609C130.883 70.1641 130.578 69.0781 130.578 67.7031ZM132.031 67.8672C132.031 68.8203 132.227 69.5703 132.617 70.1172C133.008 70.6589 133.555 70.9297 134.258 70.9297C135.169 70.9297 135.839 70.5156 136.266 69.6875V65.8281C135.823 65.0208 135.159 64.6172 134.273 64.6172C133.57 64.6172 133.021 64.8906 132.625 65.4375C132.229 65.9844 132.031 66.7943 132.031 67.8672ZM143.992 64.8438C143.773 64.8073 143.536 64.7891 143.281 64.7891C142.333 64.7891 141.69 65.1927 141.352 66V72H139.906V63.5469H141.312L141.336 64.5234C141.81 63.7682 142.482 63.3906 143.352 63.3906C143.633 63.3906 143.846 63.4271 143.992 63.5V64.8438ZM148.68 72.1562C147.534 72.1562 146.602 71.7812 145.883 71.0312C145.164 70.276 144.805 69.2682 144.805 68.0078V67.7422C144.805 66.9036 144.964 66.1562 145.281 65.5C145.604 64.8385 146.052 64.3229 146.625 63.9531C147.203 63.5781 147.828 63.3906 148.5 63.3906C149.599 63.3906 150.453 63.7526 151.062 64.4766C151.672 65.2005 151.977 66.237 151.977 67.5859V68.1875H146.25C146.271 69.0208 146.513 69.6953 146.977 70.2109C147.445 70.7214 148.039 70.9766 148.758 70.9766C149.268 70.9766 149.701 70.8724 150.055 70.6641C150.409 70.4557 150.719 70.1797 150.984 69.8359L151.867 70.5234C151.159 71.612 150.096 72.1562 148.68 72.1562ZM148.5 64.5781C147.917 64.5781 147.427 64.7917 147.031 65.2188C146.635 65.6406 146.391 66.2344 146.297 67H150.531V66.8906C150.49 66.1562 150.292 65.5885 149.938 65.1875C149.583 64.7812 149.104 64.5781 148.5 64.5781ZM158.875 72C158.792 71.8333 158.724 71.5365 158.672 71.1094C158 71.8073 157.198 72.1562 156.266 72.1562C155.432 72.1562 154.747 71.9219 154.211 71.4531C153.68 70.9792 153.414 70.3802 153.414 69.6562C153.414 68.776 153.747 68.0938 154.414 67.6094C155.086 67.1198 156.029 66.875 157.242 66.875H158.648V66.2109C158.648 65.7057 158.497 65.3047 158.195 65.0078C157.893 64.7057 157.448 64.5547 156.859 64.5547C156.344 64.5547 155.911 64.6849 155.562 64.9453C155.214 65.2057 155.039 65.5208 155.039 65.8906H153.586C153.586 65.4688 153.734 65.0625 154.031 64.6719C154.333 64.276 154.74 63.9635 155.25 63.7344C155.766 63.5052 156.331 63.3906 156.945 63.3906C157.919 63.3906 158.682 63.6354 159.234 64.125C159.786 64.6094 160.073 65.2786 160.094 66.1328V70.0234C160.094 70.7995 160.193 71.4167 160.391 71.875V72H158.875ZM156.477 70.8984C156.93 70.8984 157.359 70.7812 157.766 70.5469C158.172 70.3125 158.466 70.0078 158.648 69.6328V67.8984H157.516C155.745 67.8984 154.859 68.4167 154.859 69.4531C154.859 69.9062 155.01 70.2604 155.312 70.5156C155.615 70.7708 156.003 70.8984 156.477 70.8984ZM164.32 61.5V63.5469H165.898V64.6641H164.32V69.9062C164.32 70.2448 164.391 70.5 164.531 70.6719C164.672 70.8385 164.911 70.9219 165.25 70.9219C165.417 70.9219 165.646 70.8906 165.938 70.8281V72C165.557 72.1042 165.188 72.1562 164.828 72.1562C164.182 72.1562 163.695 71.9609 163.367 71.5703C163.039 71.1797 162.875 70.625 162.875 69.9062V64.6641H161.336V63.5469H162.875V61.5H164.32ZM176.781 72C176.698 71.8333 176.63 71.5365 176.578 71.1094C175.906 71.8073 175.104 72.1562 174.172 72.1562C173.339 72.1562 172.654 71.9219 172.117 71.4531C171.586 70.9792 171.32 70.3802 171.32 69.6562C171.32 68.776 171.654 68.0938 172.32 67.6094C172.992 67.1198 173.935 66.875 175.148 66.875H176.555V66.2109C176.555 65.7057 176.404 65.3047 176.102 65.0078C175.799 64.7057 175.354 64.5547 174.766 64.5547C174.25 64.5547 173.818 64.6849 173.469 64.9453C173.12 65.2057 172.945 65.5208 172.945 65.8906H171.492C171.492 65.4688 171.641 65.0625 171.938 64.6719C172.24 64.276 172.646 63.9635 173.156 63.7344C173.672 63.5052 174.237 63.3906 174.852 63.3906C175.826 63.3906 176.589 63.6354 177.141 64.125C177.693 64.6094 177.979 65.2786 178 66.1328V70.0234C178 70.7995 178.099 71.4167 178.297 71.875V72H176.781ZM174.383 70.8984C174.836 70.8984 175.266 70.7812 175.672 70.5469C176.078 70.3125 176.372 70.0078 176.555 69.6328V67.8984H175.422C173.651 67.8984 172.766 68.4167 172.766 69.4531C172.766 69.9062 172.917 70.2604 173.219 70.5156C173.521 70.7708 173.909 70.8984 174.383 70.8984ZM187.406 67.8672C187.406 69.1536 187.112 70.1901 186.523 70.9766C185.935 71.763 185.138 72.1562 184.133 72.1562C183.107 72.1562 182.299 71.8307 181.711 71.1797V75.25H180.266V63.5469H181.586L181.656 64.4844C182.245 63.7552 183.062 63.3906 184.109 63.3906C185.125 63.3906 185.927 63.7734 186.516 64.5391C187.109 65.3047 187.406 66.3698 187.406 67.7344V67.8672ZM185.961 67.7031C185.961 66.75 185.758 65.9974 185.352 65.4453C184.945 64.8932 184.388 64.6172 183.68 64.6172C182.805 64.6172 182.148 65.0052 181.711 65.7812V69.8203C182.143 70.5911 182.805 70.9766 183.695 70.9766C184.388 70.9766 184.938 70.7031 185.344 70.1562C185.755 69.6042 185.961 68.7865 185.961 67.7031ZM196.391 67.8672C196.391 69.1536 196.096 70.1901 195.508 70.9766C194.919 71.763 194.122 72.1562 193.117 72.1562C192.091 72.1562 191.284 71.8307 190.695 71.1797V75.25H189.25V63.5469H190.57L190.641 64.4844C191.229 63.7552 192.047 63.3906 193.094 63.3906C194.109 63.3906 194.911 63.7734 195.5 64.5391C196.094 65.3047 196.391 66.3698 196.391 67.7344V67.8672ZM194.945 67.7031C194.945 66.75 194.742 65.9974 194.336 65.4453C193.93 64.8932 193.372 64.6172 192.664 64.6172C191.789 64.6172 191.133 65.0052 190.695 65.7812V69.8203C191.128 70.5911 191.789 70.9766 192.68 70.9766C193.372 70.9766 193.922 70.7031 194.328 70.1562C194.74 69.6042 194.945 68.7865 194.945 67.7031ZM199.852 68.7891H198.547L198.445 60.625H199.961L199.852 68.7891ZM198.391 71.2734C198.391 71.0391 198.461 70.8438 198.602 70.6875C198.747 70.526 198.961 70.4453 199.242 70.4453C199.523 70.4453 199.737 70.526 199.883 70.6875C200.029 70.8438 200.102 71.0391 200.102 71.2734C200.102 71.5078 200.029 71.7031 199.883 71.8594C199.737 72.0104 199.523 72.0859 199.242 72.0859C198.961 72.0859 198.747 72.0104 198.602 71.8594C198.461 71.7031 198.391 71.5078 198.391 71.2734Z" fill="white"/>
</svg>
