<svg width="199" height="223" viewBox="0 0 199 223" fill="none" xmlns="http://www.w3.org/2000/svg">
<path d="M19.0081 142.146V150.938C19.0088 152.805 19.4605 154.644 20.3248 156.299C21.1891 157.955 22.4403 159.376 23.972 160.444L58.819 125.596L49.1581 115.935C48.8996 115.677 48.5928 115.472 48.2551 115.332C47.9175 115.192 47.5555 115.12 47.19 115.12C46.8245 115.12 46.4626 115.192 46.125 115.332C45.7873 115.472 45.4805 115.677 45.222 115.935L19.0081 142.146Z" fill="url(#paint0_linear_2_9)"/>
<path d="M47.187 104.528C48.3552 104.525 49.5124 104.753 50.5916 105.201C51.6708 105.648 52.6505 106.305 53.474 107.133L65.3741 119.033L89.807 94.6C92.3413 92.0699 95.776 90.6489 99.3571 90.6489C102.938 90.6489 106.373 92.0699 108.907 94.6L142.88 128.573L153.38 118.073C155.049 116.408 157.309 115.473 159.667 115.473C162.024 115.473 164.285 116.408 165.953 118.073L179.707 131.838V71.546C179.707 69.5101 179.171 67.5101 178.152 65.7471C177.134 63.984 175.67 62.52 173.907 61.502L105.156 21.808C103.393 20.7899 101.392 20.2539 99.356 20.2539C97.3198 20.2539 95.3195 20.7899 93.556 21.808L24.804 61.502C23.0409 62.52 21.5767 63.984 20.5586 65.7471C19.5405 67.5101 19.0044 69.5101 19.004 71.546V129.024L40.8961 107.132C41.7202 106.303 42.7007 105.646 43.7805 105.2C44.8604 104.753 46.0183 104.524 47.187 104.528Z" fill="url(#paint1_linear_2_9)"/>
<path d="M149.439 135.138L174.739 160.443C176.271 159.375 177.522 157.953 178.386 156.298C179.25 154.643 179.701 152.804 179.702 150.937V144.957L161.627 126.882C161.105 126.36 160.397 126.067 159.659 126.067C158.92 126.067 158.212 126.36 157.69 126.882L149.439 135.138Z" fill="url(#paint2_linear_2_9)"/>
<path d="M142.878 141.696L136.319 135.138L102.346 101.166C101.553 100.374 100.479 99.9298 99.3585 99.9298C98.2382 99.9298 97.1637 100.374 96.371 101.166L71.938 125.599L65.378 132.159L32.255 165.278L93.555 200.672C95.3184 201.69 97.3188 202.226 99.355 202.226C101.391 202.226 103.392 201.69 105.155 200.672L166.455 165.278L142.878 141.696Z" fill="url(#paint3_linear_2_9)"/>
<path d="M99.358 9.592C101.632 9.59138 103.867 10.1898 105.836 11.327L182.645 55.673C184.615 56.8103 186.25 58.4459 187.387 60.4156C188.524 62.3853 189.123 64.6196 189.123 66.894V155.586C189.123 157.86 188.524 160.094 187.387 162.064C186.25 164.033 184.615 165.669 182.645 166.806L105.836 211.152C103.866 212.289 101.632 212.888 99.3575 212.888C97.0831 212.888 94.8487 212.289 92.879 211.152L16.07 166.806C14.1004 165.669 12.4648 164.033 11.3277 162.064C10.1906 160.094 9.59195 157.86 9.59201 155.586V66.894C9.59198 64.6196 10.1906 62.3853 11.3277 60.4156C12.4649 58.4459 14.1004 56.8103 16.07 55.673L92.879 11.327C94.8489 10.1899 97.0835 9.59149 99.358 9.592ZM99.358 0C95.4002 0.00154565 91.5123 1.04335 88.084 3.021L11.274 47.367C7.85053 49.3508 5.00755 52.1982 3.02917 55.6248C1.0508 59.0515 0.00628602 62.9373 0 66.894V155.586C0.0064883 159.543 1.05121 163.429 3.02975 166.855C5.0083 170.282 7.85141 173.129 11.275 175.113L88.084 219.459C91.5119 221.438 95.4001 222.479 99.358 222.479C103.316 222.479 107.204 221.438 110.632 219.459L187.441 175.113C190.865 173.13 193.709 170.282 195.688 166.856C197.667 163.429 198.712 159.543 198.719 155.586V66.894C198.713 62.9373 197.668 59.0515 195.69 55.6249C193.711 52.1983 190.868 49.3508 187.445 47.367L110.636 3.021C107.208 1.04348 103.32 0.00168631 99.362 0H99.358Z" fill="url(#paint4_linear_2_9)"/>
<defs>
<linearGradient id="paint0_linear_2_9" x1="38.9135" y1="21.6611" x2="38.9135" y2="202.958" gradientUnits="userSpaceOnUse">
<stop offset="0.004" stop-color="#4C99D4"/>
<stop offset="0.5" stop-color="#56C3E6"/>
<stop offset="1" stop-color="#B0D8BC"/>
</linearGradient>
<linearGradient id="paint1_linear_2_9" x1="99.3555" y1="21.7045" x2="99.3555" y2="203.029" gradientUnits="userSpaceOnUse">
<stop offset="0.004" stop-color="#4C99D4"/>
<stop offset="0.5" stop-color="#56C3E6"/>
<stop offset="1" stop-color="#B0D8BC"/>
</linearGradient>
<linearGradient id="paint2_linear_2_9" x1="164.571" y1="21.6657" x2="164.571" y2="202.967" gradientUnits="userSpaceOnUse">
<stop offset="0.004" stop-color="#4C99D4"/>
<stop offset="0.5" stop-color="#56C3E6"/>
<stop offset="1" stop-color="#B0D8BC"/>
</linearGradient>
<linearGradient id="paint3_linear_2_9" x1="99.355" y1="21.6731" x2="99.355" y2="202.942" gradientUnits="userSpaceOnUse">
<stop offset="0.004" stop-color="#4C99D4"/>
<stop offset="0.5" stop-color="#56C3E6"/>
<stop offset="1" stop-color="#B0D8BC"/>
</linearGradient>
<linearGradient id="paint4_linear_2_9" x1="99.3595" y1="222.479" x2="99.3595" y2="0" gradientUnits="userSpaceOnUse">
<stop stop-color="#B0D8BC"/>
<stop offset="0.5" stop-color="#56C3E6"/>
<stop offset="0.996" stop-color="#4C99D4"/>
</linearGradient>
</defs>
</svg>
